M48
; DRILL file {KiCad (5.1.9)-1} date 11/10/25 06:51:52
; FORMAT={-:-/ absolute / metric / decimal}
; #@! TF.CreationDate,2025-11-10T06:51:52+09:00
; #@! TF.GenerationSoftware,Kicad,Pcbnew,(5.1.9)-1
FMAT,2
METRIC
T1C0.300
T2C3.200
%
G90
G05
T1
X25.33Y134.175
X25.808Y-4.228
X30.504Y126.321
X32.466Y127.633
X33.695Y128.872
X39.341Y125.165
X40.312Y125.329
X41.339Y126.345
X56.092Y131.825
X63.127Y100.248
X65.438Y97.157
X68.207Y94.442
X70.748Y86.891
X73.104Y52.815
X75.828Y81.457
X78.367Y82.015
X80.907Y80.253
X81.763Y133.981
T2
X4.0Y127.0
X4.0Y5.0
X111.0Y127.0
X111.0Y5.0
T0
M30
