G04 #@! TF.GenerationSoftware,KiCad,Pcbnew,(5.1.9)-1*
G04 #@! TF.CreationDate,2025-11-10T06:51:50+09:00*
G04 #@! TF.ProjectId,MZ-2000_CMU,4d5a2d32-3030-4305-9f43-4d552e6b6963,rev?*
G04 #@! TF.SameCoordinates,PX20a6660PYbcc1c70*
G04 #@! TF.FileFunction,Legend,Top*
G04 #@! TF.FilePolarity,Positive*
%FSLAX46Y46*%
G04 Gerber Fmt 4.6, Leading zero omitted, Abs format (unit mm)*
G04 Created by KiCad (PCBNEW (5.1.9)-1) date 2025-11-10 06:51:50*
%MOMM*%
%LPD*%
G01*
G04 APERTURE LIST*
%ADD10C,0.100000*%
%ADD11C,0.500000*%
G04 APERTURE END LIST*
D10*
G36*
X83500000Y-4500000D02*
G01*
X82230000Y-1960000D01*
X84770000Y-1960000D01*
X83500000Y-4500000D01*
G37*
X83500000Y-4500000D02*
X82230000Y-1960000D01*
X84770000Y-1960000D01*
X83500000Y-4500000D01*
D11*
X13119047Y13238096D02*
X13119047Y18238096D01*
X14785714Y14666667D01*
X16452380Y18238096D01*
X16452380Y13238096D01*
X18357142Y18238096D02*
X21690476Y18238096D01*
X18357142Y13238096D01*
X21690476Y13238096D01*
X23595238Y15142858D02*
X27404761Y15142858D01*
X29547619Y17761905D02*
X29785714Y18000000D01*
X30261904Y18238096D01*
X31452380Y18238096D01*
X31928571Y18000000D01*
X32166666Y17761905D01*
X32404761Y17285715D01*
X32404761Y16809524D01*
X32166666Y16095239D01*
X29309523Y13238096D01*
X32404761Y13238096D01*
X35500000Y18238096D02*
X35976190Y18238096D01*
X36452380Y18000000D01*
X36690476Y17761905D01*
X36928571Y17285715D01*
X37166666Y16333334D01*
X37166666Y15142858D01*
X36928571Y14190477D01*
X36690476Y13714286D01*
X36452380Y13476191D01*
X35976190Y13238096D01*
X35500000Y13238096D01*
X35023809Y13476191D01*
X34785714Y13714286D01*
X34547619Y14190477D01*
X34309523Y15142858D01*
X34309523Y16333334D01*
X34547619Y17285715D01*
X34785714Y17761905D01*
X35023809Y18000000D01*
X35500000Y18238096D01*
X40261904Y18238096D02*
X40738095Y18238096D01*
X41214285Y18000000D01*
X41452380Y17761905D01*
X41690476Y17285715D01*
X41928571Y16333334D01*
X41928571Y15142858D01*
X41690476Y14190477D01*
X41452380Y13714286D01*
X41214285Y13476191D01*
X40738095Y13238096D01*
X40261904Y13238096D01*
X39785714Y13476191D01*
X39547619Y13714286D01*
X39309523Y14190477D01*
X39071428Y15142858D01*
X39071428Y16333334D01*
X39309523Y17285715D01*
X39547619Y17761905D01*
X39785714Y18000000D01*
X40261904Y18238096D01*
X45023809Y18238096D02*
X45500000Y18238096D01*
X45976190Y18000000D01*
X46214285Y17761905D01*
X46452380Y17285715D01*
X46690476Y16333334D01*
X46690476Y15142858D01*
X46452380Y14190477D01*
X46214285Y13714286D01*
X45976190Y13476191D01*
X45500000Y13238096D01*
X45023809Y13238096D01*
X44547619Y13476191D01*
X44309523Y13714286D01*
X44071428Y14190477D01*
X43833333Y15142858D01*
X43833333Y16333334D01*
X44071428Y17285715D01*
X44309523Y17761905D01*
X44547619Y18000000D01*
X45023809Y18238096D01*
X51928571Y16571429D02*
X53833333Y16571429D01*
X52642857Y18238096D02*
X52642857Y13952381D01*
X52880952Y13476191D01*
X53357142Y13238096D01*
X53833333Y13238096D01*
X56214285Y13238096D02*
X55738095Y13476191D01*
X55500000Y13714286D01*
X55261904Y14190477D01*
X55261904Y15619048D01*
X55500000Y16095239D01*
X55738095Y16333334D01*
X56214285Y16571429D01*
X56928571Y16571429D01*
X57404761Y16333334D01*
X57642857Y16095239D01*
X57880952Y15619048D01*
X57880952Y14190477D01*
X57642857Y13714286D01*
X57404761Y13476191D01*
X56928571Y13238096D01*
X56214285Y13238096D01*
X66690476Y13714286D02*
X66452380Y13476191D01*
X65738095Y13238096D01*
X65261904Y13238096D01*
X64547619Y13476191D01*
X64071428Y13952381D01*
X63833333Y14428572D01*
X63595238Y15380953D01*
X63595238Y16095239D01*
X63833333Y17047620D01*
X64071428Y17523810D01*
X64547619Y18000000D01*
X65261904Y18238096D01*
X65738095Y18238096D01*
X66452380Y18000000D01*
X66690476Y17761905D01*
X68833333Y13238096D02*
X68833333Y18238096D01*
X70500000Y14666667D01*
X72166666Y18238096D01*
X72166666Y13238096D01*
X74547619Y18238096D02*
X74547619Y14190477D01*
X74785714Y13714286D01*
X75023809Y13476191D01*
X75500000Y13238096D01*
X76452380Y13238096D01*
X76928571Y13476191D01*
X77166666Y13714286D01*
X77404761Y14190477D01*
X77404761Y18238096D01*
X79785714Y15142858D02*
X83595238Y15142858D01*
X86690476Y16095239D02*
X86214285Y16333334D01*
X85976190Y16571429D01*
X85738095Y17047620D01*
X85738095Y17285715D01*
X85976190Y17761905D01*
X86214285Y18000000D01*
X86690476Y18238096D01*
X87642857Y18238096D01*
X88119047Y18000000D01*
X88357142Y17761905D01*
X88595238Y17285715D01*
X88595238Y17047620D01*
X88357142Y16571429D01*
X88119047Y16333334D01*
X87642857Y16095239D01*
X86690476Y16095239D01*
X86214285Y15857143D01*
X85976190Y15619048D01*
X85738095Y15142858D01*
X85738095Y14190477D01*
X85976190Y13714286D01*
X86214285Y13476191D01*
X86690476Y13238096D01*
X87642857Y13238096D01*
X88119047Y13476191D01*
X88357142Y13714286D01*
X88595238Y14190477D01*
X88595238Y15142858D01*
X88357142Y15619048D01*
X88119047Y15857143D01*
X87642857Y16095239D01*
X91690476Y18238096D02*
X92166666Y18238096D01*
X92642857Y18000000D01*
X92880952Y17761905D01*
X93119047Y17285715D01*
X93357142Y16333334D01*
X93357142Y15142858D01*
X93119047Y14190477D01*
X92880952Y13714286D01*
X92642857Y13476191D01*
X92166666Y13238096D01*
X91690476Y13238096D01*
X91214285Y13476191D01*
X90976190Y13714286D01*
X90738095Y14190477D01*
X90500000Y15142858D01*
X90500000Y16333334D01*
X90738095Y17285715D01*
X90976190Y17761905D01*
X91214285Y18000000D01*
X91690476Y18238096D01*
X96452380Y18238096D02*
X96928571Y18238096D01*
X97404761Y18000000D01*
X97642857Y17761905D01*
X97880952Y17285715D01*
X98119047Y16333334D01*
X98119047Y15142858D01*
X97880952Y14190477D01*
X97642857Y13714286D01*
X97404761Y13476191D01*
X96928571Y13238096D01*
X96452380Y13238096D01*
X95976190Y13476191D01*
X95738095Y13714286D01*
X95500000Y14190477D01*
X95261904Y15142858D01*
X95261904Y16333334D01*
X95500000Y17285715D01*
X95738095Y17761905D01*
X95976190Y18000000D01*
X96452380Y18238096D01*
M02*
