G04 #@! TF.GenerationSoftware,KiCad,Pcbnew,(5.1.9)-1*
G04 #@! TF.CreationDate,2025-11-10T06:51:50+09:00*
G04 #@! TF.ProjectId,MZ-2000_CMU,4d5a2d32-3030-4305-9f43-4d552e6b6963,rev?*
G04 #@! TF.SameCoordinates,PX20a6660PYbcc1c70*
G04 #@! TF.FileFunction,Soldermask,Bot*
G04 #@! TF.FilePolarity,Negative*
%FSLAX46Y46*%
G04 Gerber Fmt 4.6, Leading zero omitted, Abs format (unit mm)*
G04 Created by KiCad (PCBNEW (5.1.9)-1) date 2025-11-10 06:51:50*
%MOMM*%
%LPD*%
G01*
G04 APERTURE LIST*
%ADD10R,1.780000X10.000000*%
%ADD11C,3.200000*%
G04 APERTURE END LIST*
D10*
X26940000Y137196000D03*
X29480000Y137196000D03*
X32020000Y137196000D03*
X34560000Y137196000D03*
X37100000Y137196000D03*
X39640000Y137196000D03*
X42180000Y137196000D03*
X44720000Y137196000D03*
X47260000Y137196000D03*
X49800000Y137196000D03*
X52340000Y137196000D03*
X54880000Y137196000D03*
X57420000Y137196000D03*
X59960000Y137196000D03*
X62500000Y137196000D03*
X65040000Y137196000D03*
X67580000Y137196000D03*
X70120000Y137196000D03*
X72660000Y137196000D03*
X75200000Y137196000D03*
X77740000Y137196000D03*
X80280000Y137196000D03*
D11*
X4000000Y127000000D03*
X111000000Y127000000D03*
X111000000Y5000000D03*
X4000000Y5000000D03*
D10*
X83447500Y-10080000D03*
X80907500Y-10080000D03*
X78367500Y-10080000D03*
X75827500Y-10080000D03*
X73287500Y-10080000D03*
X70747500Y-10080000D03*
X68207500Y-10080000D03*
X65667500Y-10080000D03*
X63127500Y-10080000D03*
X60587500Y-10080000D03*
X58047500Y-10080000D03*
X55507500Y-10080000D03*
X52967500Y-10080000D03*
X50427500Y-10080000D03*
X47887500Y-10080000D03*
X45347500Y-10080000D03*
X42807500Y-10080000D03*
X40267500Y-10080000D03*
X37727500Y-10080000D03*
X35187500Y-10080000D03*
X32647500Y-10080000D03*
X30107500Y-10080000D03*
X27567500Y-10080000D03*
X25027500Y-10080000D03*
X22487500Y-10080000D03*
M02*
